<svg width="24" height="24" viewBox="0 0 24 24" fill="none" xmlns="http://www.w3.org/2000/svg">
<path d="M20.9822 6C20.9822 5.20435 20.6662 4.44129 20.1036 3.87868C19.541 3.31607 18.7779 3 17.9822 3H5.98224C5.37823 3.00358 4.78936 3.1894 4.29269 3.53315C3.79603 3.8769 3.41469 4.36257 3.19858 4.92661C2.98248 5.49065 2.94166 6.10679 3.08149 6.6944C3.22131 7.28202 3.53525 7.81374 3.98224 8.22V18C3.98224 18.7956 4.29831 19.5587 4.86092 20.1213C5.42353 20.6839 6.18659 21 6.98224 21H16.9822C17.7779 21 18.541 20.6839 19.1036 20.1213C19.6662 19.5587 19.9822 18.7956 19.9822 18V8.22C20.2948 7.94042 20.5453 7.59839 20.7176 7.21601C20.8898 6.83363 20.98 6.41938 20.9822 6ZM5.98224 5H17.9822C18.2475 5 18.5018 5.10536 18.6893 5.29289C18.8769 5.48043 18.9822 5.73478 18.9822 6C18.9822 6.26522 18.8769 6.51957 18.6893 6.70711C18.5018 6.89464 18.2475 7 17.9822 7H5.98224C5.71702 7 5.46267 6.89464 5.27513 6.70711C5.08759 6.51957 4.98224 6.26522 4.98224 6C4.98224 5.73478 5.08759 5.48043 5.27513 5.29289C5.46267 5.10536 5.71702 5 5.98224 5ZM17.9822 18C17.9822 18.2652 17.8769 18.5196 17.6893 18.7071C17.5018 18.8946 17.2475 19 16.9822 19H6.98224C6.71702 19 6.46267 18.8946 6.27513 18.7071C6.08759 18.5196 5.98224 18.2652 5.98224 18V9H17.9822V18Z" fill="white"/>
<path d="M14.1122 12H9.85218C9.37169 12 8.98218 12.3895 8.98218 12.87V13.13C8.98218 13.6105 9.37169 14 9.85218 14H14.1122C14.5927 14 14.9822 13.6105 14.9822 13.13V12.87C14.9822 12.3895 14.5927 12 14.1122 12Z" fill="white"/>
</svg>
