<svg width="24" height="24" viewBox="0 0 24 24" fill="none" xmlns="http://www.w3.org/2000/svg">
<path d="M20.6201 4.21991C20.5039 4.12593 20.3681 4.05918 20.2228 4.02457C20.0774 3.98996 19.9261 3.98837 19.7801 4.01991L12.0001 5.76991L4.22006 3.99991C4.07168 3.9664 3.91762 3.96718 3.76959 4.00219C3.62156 4.0372 3.48347 4.10552 3.36583 4.20195C3.24819 4.29838 3.15409 4.42037 3.09071 4.55865C3.02732 4.69693 2.99632 4.84784 3.00006 4.99991V17.1999C2.99441 17.4311 3.06904 17.657 3.21126 17.8394C3.35347 18.0217 3.55448 18.1491 3.78006 18.1999L11.7801 19.9999H12.2201L20.2201 18.1999C20.4456 18.1491 20.6466 18.0217 20.7889 17.8394C20.9311 17.657 21.0057 17.4311 21.0001 17.1999V4.99991C20.9994 4.8497 20.9648 4.70159 20.8991 4.56655C20.8333 4.43152 20.7379 4.31304 20.6201 4.21991ZM5.00006 6.24991L11.0001 7.59991V17.7499L5.00006 16.3999V6.24991ZM19.0001 16.3999L13.0001 17.7499V7.59991L19.0001 6.24991V16.3999Z" fill="white"/>
</svg>
