<svg width="24" height="24" viewBox="0 0 24 24" fill="none" xmlns="http://www.w3.org/2000/svg">
<path d="M19.0001 20.0001H5.00005C4.73484 20.0001 4.48048 20.1055 4.29295 20.293C4.10541 20.4805 4.00005 20.7349 4.00005 21.0001C4.00005 21.2653 4.10541 21.5197 4.29295 21.7072C4.48048 21.8947 4.73484 22.0001 5.00005 22.0001H19.0001C19.2653 22.0001 19.5196 21.8947 19.7072 21.7072C19.8947 21.5197 20.0001 21.2653 20.0001 21.0001C20.0001 20.7349 19.8947 20.4805 19.7072 20.293C19.5196 20.1055 19.2653 20.0001 19.0001 20.0001ZM5.00005 18.0001H5.09005L9.26005 17.6201C9.71685 17.5746 10.1441 17.3733 10.4701 17.0501L19.4701 8.0501C19.8194 7.68107 20.0082 7.18861 19.995 6.68064C19.9819 6.17267 19.768 5.69061 19.4001 5.3401L16.6601 2.6001C16.3024 2.2642 15.8338 2.07146 15.3434 2.05855C14.8529 2.04565 14.3748 2.21347 14.0001 2.5301L5.00005 11.5301C4.67682 11.8561 4.47556 12.2833 4.43005 12.7401L4.00005 16.9101C3.98658 17.0566 4.00559 17.2042 4.05571 17.3425C4.10584 17.4808 4.18585 17.6063 4.29005 17.7101C4.38349 17.8028 4.49431 17.8761 4.61615 17.9259C4.73798 17.9756 4.86845 18.0009 5.00005 18.0001ZM15.2701 4.0001L18.0001 6.7301L16.0001 8.6801L13.3201 6.0001L15.2701 4.0001Z" fill="white"/>
</svg>
