<svg width="24" height="24" viewBox="0 0 24 24" fill="none" xmlns="http://www.w3.org/2000/svg">
<path d="M14 13H13V12C13 11.7348 12.8946 11.4804 12.7071 11.2929C12.5196 11.1054 12.2652 11 12 11C11.7348 11 11.4804 11.1054 11.2929 11.2929C11.1054 11.4804 11 11.7348 11 12V13H10C9.73478 13 9.48043 13.1054 9.29289 13.2929C9.10536 13.4804 9 13.7348 9 14C9 14.2652 9.10536 14.5196 9.29289 14.7071C9.48043 14.8946 9.73478 15 10 15H11V16C11 16.2652 11.1054 16.5196 11.2929 16.7071C11.4804 16.8946 11.7348 17 12 17C12.2652 17 12.5196 16.8946 12.7071 16.7071C12.8946 16.5196 13 16.2652 13 16V15H14C14.2652 15 14.5196 14.8946 14.7071 14.7071C14.8946 14.5196 15 14.2652 15 14C15 13.7348 14.8946 13.4804 14.7071 13.2929C14.5196 13.1054 14.2652 13 14 13Z" fill="white"/>
<path d="M19.5 7.04994H12.5L9.87 3.86994C9.77695 3.75523 9.65964 3.66255 9.5265 3.59858C9.39336 3.53461 9.24771 3.50092 9.1 3.49994H4.5C3.84661 3.49192 3.21666 3.74314 2.7481 4.19858C2.27953 4.65403 2.01053 5.27659 2 5.92994V18.0699C2.01053 18.7233 2.27953 19.3459 2.7481 19.8013C3.21666 20.2568 3.84661 20.508 4.5 20.4999H19.5C20.1534 20.508 20.7833 20.2568 21.2519 19.8013C21.7205 19.3459 21.9895 18.7233 22 18.0699V9.47994C21.9895 8.82659 21.7205 8.20403 21.2519 7.74858C20.7833 7.29314 20.1534 7.04192 19.5 7.04994ZM20 18.0499C19.9962 18.1113 19.9802 18.1713 19.9529 18.2264C19.9255 18.2814 19.8874 18.3304 19.8408 18.3705C19.7942 18.4106 19.74 18.4409 19.6815 18.4597C19.6229 18.4785 19.5612 18.4854 19.5 18.4799H4.5C4.43876 18.4854 4.37706 18.4785 4.31852 18.4597C4.25998 18.4409 4.20581 18.4106 4.1592 18.3705C4.11259 18.3304 4.07448 18.2814 4.04714 18.2264C4.0198 18.1713 4.00377 18.1113 4 18.0499V5.92994C4.00377 5.86858 4.0198 5.80859 4.04714 5.75353C4.07448 5.69847 4.11259 5.64944 4.1592 5.60936C4.20581 5.56927 4.25998 5.53894 4.31852 5.52014C4.37706 5.50135 4.43876 5.49448 4.5 5.49994H8.63L11.23 8.67994C11.3231 8.79466 11.4404 8.88733 11.5735 8.9513C11.7066 9.01528 11.8523 9.04897 12 9.04994H19.5C19.5612 9.04448 19.6229 9.05135 19.6815 9.07014C19.74 9.08894 19.7942 9.11927 19.8408 9.15936C19.8874 9.19944 19.9255 9.24847 19.9529 9.30353C19.9802 9.35859 19.9962 9.41858 20 9.47994V18.0499Z" fill="white"/>
</svg>
