<svg width="64" height="64" xmlns="http://www.w3.org/2000/svg">
  <symbol id="icon-home" viewBox="0 0 24 24">
    <path d="M12 3L4 10h2v9h8v-7h4v7h8v-9h2L12 3z" />
  </symbol>
  <symbol id="icon-star" viewBox="0 0 24 24">
    <path d="M12 17.27L18.18 21l-1.64-7.04L22 9.21l-7.19-.61L12 2 9.19 8.6 2 9.21l5.46 4.75L4.82 21 12 17.27z" />
  </symbol>
  <symbol id="icon-avto" viewBox="0 0 64 64">
    <path fill-rule="evenodd" clip-rule="evenodd" d="M18.0003 42.6667C19.8413 42.6667 21.3337 41.1743 21.3337 39.3333C21.3337 37.4924 19.8413 36 18.0003 36C16.1594 36 14.667 37.4924 14.667 39.3333C14.667 41.1743 16.1594 42.6667 18.0003 42.6667Z" fill="#24334B"/>
    <path fill-rule="evenodd" clip-rule="evenodd" d="M46.0003 42.6667C47.8413 42.6667 49.3337 41.1743 49.3337 39.3333C49.3337 37.4924 47.8413 36 46.0003 36C44.1594 36 42.667 37.4924 42.667 39.3333C42.667 41.1743 44.1594 42.6667 46.0003 42.6667Z" fill="#24334B"/>
    <path d="M9.3335 49.3333C7.12436 49.3333 5.3335 47.5425 5.3335 45.3333V32.9463C5.3335 29.9151 7.04664 27.1441 9.7583 25.7896L10.6675 25.3353L13.7475 12.1226C14.3103 9.70823 16.4624 8 18.9415 8H45.1926C47.6902 8 49.8534 9.73331 50.3976 12.1709L53.3376 25.3353L54.2447 25.7888C56.9548 27.144 58.6668 29.914 58.6668 32.9441V45.3333C58.6668 47.5425 56.876 49.3333 54.6668 49.3333H52.0043V50.6667C52.0043 53.6121 49.6144 56 46.669 56C43.7234 56 41.3335 53.6121 41.3335 50.6667V49.3333H22.6668V50.6671C22.6668 53.6124 20.2792 56 17.3339 56C14.3886 56 12.0009 53.6124 12.0009 50.6671V49.3333H9.3335Z" fill="#1BAA75" stroke="#24334B" stroke-width="3" stroke-linejoin="round"/>
    <path d="M18.667 29.333H45.3337L43.131 19.4211C42.8599 18.2011 41.7778 17.333 40.5279 17.333H23.4727C22.2229 17.333 21.1407 18.2011 20.8697 19.4211L18.667 29.333Z" fill="#44BC7B" stroke="white" stroke-width="3" stroke-linejoin="round"/>
  </symbol>
  <symbol id="icon-book" viewBox="0 0 64 64">
    <path fill-rule="evenodd" clip-rule="evenodd" d="M18.0003 42.6667C19.8413 42.6667 21.3337 41.1743 21.3337 39.3333C21.3337 37.4924 19.8413 36 18.0003 36C16.1594 36 14.667 37.4924 14.667 39.3333C14.667 41.1743 16.1594 42.6667 18.0003 42.6667Z" fill="#24334B"/>
    <path fill-rule="evenodd" clip-rule="evenodd" d="M46.0003 42.6667C47.8413 42.6667 49.3337 41.1743 49.3337 39.3333C49.3337 37.4924 47.8413 36 46.0003 36C44.1594 36 42.667 37.4924 42.667 39.3333C42.667 41.1743 44.1594 42.6667 46.0003 42.6667Z" fill="#24334B"/>
    <path d="M9.3335 49.3333C7.12436 49.3333 5.3335 47.5425 5.3335 45.3333V32.9463C5.3335 29.9151 7.04664 27.1441 9.7583 25.7896L10.6675 25.3353L13.7475 12.1226C14.3103 9.70823 16.4624 8 18.9415 8H45.1926C47.6902 8 49.8534 9.73331 50.3976 12.1709L53.3376 25.3353L54.2447 25.7888C56.9548 27.144 58.6668 29.914 58.6668 32.9441V45.3333C58.6668 47.5425 56.876 49.3333 54.6668 49.3333H52.0043V50.6667C52.0043 53.6121 49.6144 56 46.669 56C43.7234 56 41.3335 53.6121 41.3335 50.6667V49.3333H22.6668V50.6671C22.6668 53.6124 20.2792 56 17.3339 56C14.3886 56 12.0009 53.6124 12.0009 50.6671V49.3333H9.3335Z" fill="#1BAA75" stroke="#24334B" stroke-width="3" stroke-linejoin="round"/>
    <path d="M18.667 29.333H45.3337L43.131 19.4211C42.8599 18.2011 41.7778 17.333 40.5279 17.333H23.4727C22.2229 17.333 21.1407 18.2011 20.8697 19.4211L18.667 29.333Z" fill="#44BC7B" stroke="white" stroke-width="3" stroke-linejoin="round"/>
  </symbol>
  <symbol id="icon-coin" viewBox="0 0 64 64">
    <path d="M45.3335 16V26.6667V28C41.3934 28 37.8524 29.7091 35.4115 32.4264C33.2906 34.7875 32.0002 37.9097 32.0002 41.3333C32.0002 42.1052 32.0658 42.8617 32.1916 43.5977C32.8774 47.6061 35.3526 51.0039 38.7656 52.9395C35.2156 54.0128 30.5036 54.6667 25.3335 54.6667C14.2878 54.6667 5.3335 51.6819 5.3335 48V37.3333V26.6667V16" stroke="#24334B" stroke-width="2" stroke-linecap="round" stroke-linejoin="round"/>
    <path d="M58.6667 41.3333C58.6667 48.6971 52.6971 54.6667 45.3333 54.6667C42.9455 54.6667 40.7041 54.0389 38.7655 52.9395C35.3524 51.0039 32.8772 47.6061 32.1915 43.5977C32.0656 42.8617 32 42.1052 32 41.3333C32 37.9097 33.2904 34.7875 35.4113 32.4264C37.8523 29.7091 41.3932 28 45.3333 28C52.6971 28 58.6667 33.9696 58.6667 41.3333Z" fill="#1BAA75" stroke="#24334B" stroke-width="2" stroke-linecap="round" stroke-linejoin="round"/>
    <path d="M45.3335 15.9997C45.3335 19.6815 36.3792 22.6663 25.3335 22.6663C14.2878 22.6663 5.3335 19.6815 5.3335 15.9997C5.3335 12.3178 14.2878 9.33301 25.3335 9.33301C36.3792 9.33301 45.3335 12.3178 45.3335 15.9997Z" fill="#1BAA75" stroke="#24334B" stroke-width="2" stroke-linecap="round" stroke-linejoin="round"/>
    <path d="M5.3335 37.333C5.3335 41.0149 14.2878 43.9997 25.3335 43.9997C27.7428 43.9997 30.0526 43.8577 32.1916 43.5974" stroke="#24334B" stroke-width="2" stroke-linecap="round" stroke-linejoin="round"/>
    <path d="M5.3335 26.666C5.3335 30.3479 14.2878 33.3327 25.3335 33.3327C29.0086 33.3327 32.4522 33.0023 35.4115 32.4257" stroke="#24334B" stroke-width="2" stroke-linecap="round" stroke-linejoin="round"/>
    <path d="M49.1045 45.1035L54.6666 50.6656" stroke="white" stroke-width="2" stroke-linecap="round" stroke-linejoin="round"/>
    <path d="M50.6667 41.3333C50.6667 42.8061 50.0697 44.1395 49.1045 45.1045C48.1395 46.0697 46.8061 46.6667 45.3333 46.6667C42.3879 46.6667 40 44.2788 40 41.3333C40 38.3879 42.3879 36 45.3333 36C48.2788 36 50.6667 38.3879 50.6667 41.3333Z" fill="#1BAA75" stroke="white" stroke-width="2" stroke-linecap="round" stroke-linejoin="round"/>
    <path d="M58.6668 41.333C58.6668 48.6967 52.6972 54.6663 45.3335 54.6663" stroke="#24334B" stroke-width="2" stroke-linecap="round" stroke-linejoin="round"/>
  </symbol>
  <symbol id="icon-doc" viewBox="0 0 64 64">
    <path d="M53.3332 35.9997V7.99967C53.3332 6.52691 52.1393 5.33301 50.6665 5.33301H13.3332C11.8604 5.33301 10.6665 6.52691 10.6665 7.99967V55.9997C10.6665 57.4725 11.8604 58.6663 13.3332 58.6663H27.9998" stroke="#24334B" stroke-width="3" stroke-linecap="round" stroke-linejoin="round"/>
    <path d="M22.6665 16H41.3332" stroke="#24334B" stroke-width="3" stroke-linecap="round" stroke-linejoin="round"/>
    <path d="M22.6665 26.666H41.3332" stroke="#24334B" stroke-width="3" stroke-linecap="round" stroke-linejoin="round"/>
    <path d="M22.6665 37.333H30.6665" stroke="#24334B" stroke-width="3" stroke-linecap="round" stroke-linejoin="round"/>
    <path d="M49.3333 49.3327C49.3333 51.1736 48.5872 52.8403 47.3807 54.0467C46.1743 55.2532 44.5076 55.9993 42.6667 55.9993C38.9848 55.9993 36 53.0145 36 49.3327C36 45.6508 38.9848 42.666 42.6667 42.666C46.3485 42.666 49.3333 45.6508 49.3333 49.3327Z" fill="#1BAA75"/>
    <path d="M52 58.666L47.3807 54.0467M47.3807 54.0467C48.5872 52.8403 49.3333 51.1736 49.3333 49.3327C49.3333 45.6508 46.3485 42.666 42.6667 42.666C38.9848 42.666 36 45.6508 36 49.3327C36 53.0145 38.9848 55.9993 42.6667 55.9993C44.5076 55.9993 46.1743 55.2532 47.3807 54.0467Z" stroke="#24334B" stroke-width="3" stroke-linecap="round" stroke-linejoin="round"/>
  </symbol>
  <symbol id="icon-man" viewBox="0 0 64 64">
    <path d="M25.3333 26.6667C30.488 26.6667 34.6667 22.488 34.6667 17.3333C34.6667 12.1787 30.488 8 25.3333 8C20.1787 8 16 12.1787 16 17.3333C16 22.488 20.1787 26.6667 25.3333 26.6667Z" fill="#1BAA75" stroke="white" stroke-width="3" stroke-linejoin="round"/>
    <path d="M36 37.333H25.0667C19.0928 37.333 16.1059 37.333 13.8241 38.4955C11.817 39.5182 10.1852 41.1501 9.1626 43.1571C8 45.4389 8 48.4258 8 54.3997V55.9997H36" stroke="white" stroke-width="3" stroke-linecap="round" stroke-linejoin="round"/>
    <path d="M53.3328 54.6673L49.104 50.4385" stroke="white" stroke-width="3" stroke-linecap="round" stroke-linejoin="round"/>
    <path d="M50.6667 46.6663C50.6667 48.1391 50.0697 49.4725 49.1045 50.4375C48.1395 51.4027 46.8061 51.9997 45.3333 51.9997C42.3879 51.9997 40 49.6118 40 46.6663C40 43.7209 42.3879 41.333 45.3333 41.333C48.2788 41.333 50.6667 43.7209 50.6667 46.6663Z" fill="#1BAA75" stroke="white" stroke-width="3" stroke-linecap="round" stroke-linejoin="round"/>
  </symbol>
</svg>