<svg width="107" height="38" viewBox="0 0 107 38" fill="none" xmlns="http://www.w3.org/2000/svg">
<rect x="0.103083" y="0.103083" width="106.794" height="37.7938" fill="white" stroke="#CDCDCD" stroke-width="0.206166"/>
<path d="M71.3232 32.6008H70.4193V34H69.7507V32.6008H66.8326V32.023L69.7053 27.9328H70.4193V31.9817H71.3232V32.6008ZM69.7507 31.9817V30.0089C69.7507 29.8575 69.752 29.7213 69.7548 29.6003C69.7575 29.4764 69.7617 29.3622 69.7672 29.2577C69.7727 29.1504 69.7768 29.0486 69.7796 28.9523C69.7851 28.856 69.7892 28.761 69.7919 28.6675H69.7589C69.7066 28.7775 69.6461 28.8945 69.5773 29.0183C69.5113 29.1394 69.4439 29.2481 69.3751 29.3444L67.5136 31.9817H69.7507ZM75.6362 29.3733C75.6362 29.6429 75.584 29.8768 75.4794 30.0749C75.3748 30.273 75.229 30.4354 75.0419 30.5619C74.8548 30.6857 74.6347 30.7724 74.3815 30.8219V30.855C74.8603 30.9155 75.2194 31.0696 75.4588 31.3172C75.7009 31.5649 75.822 31.8896 75.822 32.2913C75.822 32.6407 75.7394 32.9503 75.5743 33.2199C75.412 33.4896 75.1616 33.7015 74.8232 33.8555C74.4875 34.0069 74.0569 34.0825 73.5313 34.0825C73.2121 34.0825 72.9163 34.0564 72.6439 34.0041C72.3743 33.9546 72.1156 33.8707 71.868 33.7524V33.1085C72.1184 33.2323 72.3908 33.33 72.6852 33.4015C72.9796 33.4703 73.2644 33.5047 73.5396 33.5047C74.0899 33.5047 74.4875 33.396 74.7324 33.1787C74.9772 32.9585 75.0997 32.6586 75.0997 32.2789C75.0997 32.0175 75.0309 31.807 74.8933 31.6474C74.7585 31.4851 74.5631 31.3668 74.3072 31.2925C74.0541 31.2154 73.7487 31.1769 73.391 31.1769H72.7884V30.5908H73.3951C73.7225 30.5908 74.0004 30.5427 74.2288 30.4464C74.4572 30.3501 74.6306 30.2152 74.7489 30.0419C74.8699 29.8658 74.9305 29.658 74.9305 29.4187C74.9305 29.1132 74.8287 28.878 74.625 28.7129C74.4214 28.545 74.1449 28.4611 73.7955 28.4611C73.5808 28.4611 73.3855 28.4831 73.2094 28.5271C73.0333 28.5712 72.8682 28.6317 72.7141 28.7087C72.56 28.7858 72.4059 28.8752 72.2518 28.977L71.9051 28.5065C72.1253 28.3359 72.3935 28.1887 72.71 28.0649C73.0264 27.9411 73.3855 27.8792 73.7872 27.8792C74.4035 27.8792 74.8658 28.0195 75.174 28.3001C75.4822 28.5808 75.6362 28.9385 75.6362 29.3733ZM80.6964 34H76.7424V33.4263L78.3562 31.7877C78.6561 31.4851 78.9079 31.2154 79.1115 30.9788C79.3178 30.7422 79.4747 30.5096 79.582 30.2813C79.6893 30.0501 79.743 29.797 79.743 29.5218C79.743 29.1806 79.6411 28.9206 79.4375 28.7418C79.2367 28.5602 78.9711 28.4694 78.641 28.4694C78.352 28.4694 78.0961 28.5189 77.8733 28.6179C77.6504 28.717 77.422 28.8573 77.1881 29.0389L76.8208 28.5767C76.9804 28.4418 77.1537 28.3222 77.3408 28.2176C77.5307 28.113 77.7329 28.0305 77.9476 27.97C78.1649 27.9094 78.3961 27.8792 78.641 27.8792C79.0124 27.8792 79.333 27.9438 79.6026 28.0731C79.8723 28.2025 80.08 28.3868 80.2259 28.6262C80.3744 28.8656 80.4487 29.1504 80.4487 29.4806C80.4487 29.7997 80.3854 30.0969 80.2589 30.3721C80.1323 30.6445 79.9548 30.9155 79.7264 31.1852C79.4981 31.4521 79.2312 31.7355 78.9257 32.0354L77.6132 33.3438V33.3726H80.6964V34ZM83.5731 27.8792C83.9226 27.8792 84.2321 27.9342 84.5018 28.0442C84.7714 28.1543 84.9819 28.3167 85.1333 28.5313C85.2873 28.7431 85.3644 29.0045 85.3644 29.3155C85.3644 29.5604 85.3107 29.775 85.2034 29.9593C85.0989 30.1409 84.9572 30.3005 84.7783 30.4381C84.5995 30.5729 84.4013 30.694 84.184 30.8013C84.4426 30.9196 84.6751 31.0531 84.8815 31.2017C85.0906 31.3502 85.2557 31.525 85.3768 31.7258C85.4978 31.9267 85.5584 32.1647 85.5584 32.4399C85.5584 32.7783 85.4758 33.0713 85.3107 33.319C85.1484 33.5639 84.92 33.7524 84.6256 33.8844C84.3312 34.0165 83.9859 34.0825 83.5896 34.0825C83.1631 34.0825 82.7999 34.0193 82.5 33.8927C82.2028 33.7634 81.9758 33.579 81.819 33.3396C81.6649 33.0975 81.5879 32.8072 81.5879 32.4688C81.5879 32.1908 81.647 31.9501 81.7653 31.7465C81.8837 31.5401 82.0405 31.3626 82.2359 31.214C82.4312 31.0655 82.6445 30.9403 82.8756 30.8385C82.6747 30.7284 82.4904 30.6032 82.3225 30.4629C82.1574 30.3225 82.0254 30.1588 81.9263 29.9717C81.83 29.7819 81.7819 29.5617 81.7819 29.3113C81.7819 29.0059 81.8589 28.7473 82.013 28.5354C82.1698 28.3208 82.3831 28.1584 82.6527 28.0484C82.9251 27.9356 83.2319 27.8792 83.5731 27.8792ZM82.2606 32.4729C82.2606 32.7811 82.3693 33.0356 82.5867 33.2364C82.8041 33.4346 83.1329 33.5336 83.5731 33.5336C83.9914 33.5336 84.3147 33.4346 84.543 33.2364C84.7714 33.0356 84.8856 32.7728 84.8856 32.4481C84.8856 32.2473 84.8333 32.0712 84.7288 31.9198C84.6242 31.7657 84.4756 31.6282 84.283 31.5071C84.0904 31.386 83.8634 31.276 83.602 31.1769L83.4534 31.1232C83.2003 31.2278 82.9843 31.3447 82.8054 31.4741C82.6293 31.6006 82.4945 31.7451 82.401 31.9074C82.3074 32.0698 82.2606 32.2583 82.2606 32.4729ZM83.5649 28.4405C83.2402 28.4405 82.9747 28.5189 82.7683 28.6757C82.5619 28.8298 82.4587 29.0527 82.4587 29.3444C82.4587 29.5535 82.5083 29.731 82.6073 29.8768C82.7091 30.0199 82.8467 30.1437 83.0201 30.2482C83.1934 30.3501 83.3874 30.445 83.602 30.533C83.8111 30.445 83.9969 30.3487 84.1592 30.2441C84.3215 30.1368 84.4495 30.0102 84.543 29.8644C84.6366 29.7186 84.6834 29.5438 84.6834 29.3402C84.6834 29.0486 84.5802 28.8257 84.3738 28.6716C84.1702 28.5175 83.9006 28.4405 83.5649 28.4405Z" fill="#24334B"/>
<path d="M92.1253 28.9167C92.5856 28.9167 92.9587 28.5436 92.9587 28.0833C92.9587 27.6231 92.5856 27.25 92.1253 27.25C91.6651 27.25 91.292 27.6231 91.292 28.0833C91.292 28.5436 91.6651 28.9167 92.1253 28.9167Z" stroke="#24334B" stroke-width="0.515414" stroke-linecap="round" stroke-linejoin="round"/>
<path d="M95.8753 28.9167C96.3356 28.9167 96.7087 28.5436 96.7087 28.0833C96.7087 27.6231 96.3356 27.25 95.8753 27.25C95.4151 27.25 95.042 27.6231 95.042 28.0833C95.042 28.5436 95.4151 28.9167 95.8753 28.9167Z" stroke="#24334B" stroke-width="0.515414" stroke-linecap="round" stroke-linejoin="round"/>
<path d="M91.0835 30.1665H93.1668L92.7502 34.7498H91.5002L91.0835 30.1665ZM94.8335 30.1665H96.9168L96.5002 34.7498H95.2502L94.8335 30.1665Z" stroke="#24334B" stroke-width="0.515414" stroke-linecap="round" stroke-linejoin="round"/>
<path d="M71.3232 20.6008H70.4193V22H69.7507V20.6008H66.8326V20.023L69.7053 15.9328H70.4193V19.9817H71.3232V20.6008ZM69.7507 19.9817V18.0089C69.7507 17.8575 69.752 17.7213 69.7548 17.6003C69.7575 17.4764 69.7617 17.3622 69.7672 17.2577C69.7727 17.1504 69.7768 17.0486 69.7796 16.9523C69.7851 16.856 69.7892 16.761 69.7919 16.6675H69.7589C69.7066 16.7775 69.6461 16.8945 69.5773 17.0183C69.5113 17.1394 69.4439 17.2481 69.3751 17.3444L67.5136 19.9817H69.7507ZM73.8986 15.8792C74.2481 15.8792 74.5576 15.9342 74.8273 16.0442C75.0969 16.1543 75.3074 16.3167 75.4588 16.5313C75.6129 16.7431 75.6899 17.0045 75.6899 17.3155C75.6899 17.5604 75.6362 17.775 75.5289 17.9593C75.4244 18.1409 75.2827 18.3005 75.1038 18.4381C74.925 18.5729 74.7269 18.694 74.5095 18.8013C74.7681 18.9196 75.0006 19.0531 75.207 19.2017C75.4161 19.3502 75.5812 19.525 75.7023 19.7258C75.8234 19.9267 75.8839 20.1647 75.8839 20.4399C75.8839 20.7783 75.8013 21.0713 75.6362 21.319C75.4739 21.5639 75.2455 21.7524 74.9511 21.8844C74.6567 22.0165 74.3114 22.0825 73.9151 22.0825C73.4887 22.0825 73.1254 22.0193 72.8255 21.8927C72.5284 21.7634 72.3014 21.579 72.1445 21.3396C71.9904 21.0975 71.9134 20.8072 71.9134 20.4688C71.9134 20.1908 71.9725 19.9501 72.0909 19.7465C72.2092 19.5401 72.366 19.3626 72.5614 19.214C72.7567 19.0655 72.97 18.9403 73.2011 18.8385C73.0003 18.7284 72.8159 18.6032 72.6481 18.4629C72.483 18.3225 72.3509 18.1588 72.2518 17.9717C72.1555 17.7819 72.1074 17.5617 72.1074 17.3113C72.1074 17.0059 72.1844 16.7473 72.3385 16.5354C72.4953 16.3208 72.7086 16.1584 72.9782 16.0484C73.2506 15.9356 73.5574 15.8792 73.8986 15.8792ZM72.5861 20.4729C72.5861 20.7811 72.6948 21.0356 72.9122 21.2364C73.1296 21.4346 73.4584 21.5336 73.8986 21.5336C74.3169 21.5336 74.6402 21.4346 74.8686 21.2364C75.0969 21.0356 75.2111 20.7728 75.2111 20.4481C75.2111 20.2473 75.1589 20.0712 75.0543 19.9198C74.9497 19.7657 74.8011 19.6282 74.6085 19.5071C74.4159 19.386 74.1889 19.276 73.9275 19.1769L73.7789 19.1232C73.5258 19.2278 73.3098 19.3447 73.131 19.4741C72.9549 19.6006 72.82 19.7451 72.7265 19.9074C72.6329 20.0698 72.5861 20.2583 72.5861 20.4729ZM73.8904 16.4405C73.5657 16.4405 73.3002 16.5189 73.0938 16.6757C72.8874 16.8298 72.7843 17.0527 72.7843 17.3444C72.7843 17.5535 72.8338 17.731 72.9328 17.8768C73.0346 18.0199 73.1722 18.1437 73.3456 18.2482C73.5189 18.3501 73.7129 18.445 73.9275 18.533C74.1366 18.445 74.3224 18.3487 74.4847 18.2441C74.6471 18.1368 74.775 18.0102 74.8686 17.8644C74.9621 17.7186 75.0089 17.5438 75.0089 17.3402C75.0089 17.0486 74.9057 16.8257 74.6993 16.6716C74.4957 16.5175 74.2261 16.4405 73.8904 16.4405ZM80.9977 20.6008H80.0938V22H79.4251V20.6008H76.5071V20.023L79.3797 15.9328H80.0938V19.9817H80.9977V20.6008ZM79.4251 19.9817V18.0089C79.4251 17.8575 79.4265 17.7213 79.4293 17.6003C79.432 17.4764 79.4362 17.3622 79.4417 17.2577C79.4472 17.1504 79.4513 17.0486 79.454 16.9523C79.4595 16.856 79.4637 16.761 79.4664 16.6675H79.4334C79.3811 16.7775 79.3206 16.8945 79.2518 17.0183C79.1858 17.1394 79.1183 17.2481 79.0496 17.3444L77.1881 19.9817H79.4251ZM83.4864 18.3102C83.8964 18.3102 84.2528 18.3803 84.5554 18.5207C84.8581 18.6582 85.092 18.8591 85.2571 19.1232C85.4249 19.3874 85.5088 19.708 85.5088 20.0849C85.5088 20.4976 85.4194 20.854 85.2406 21.1539C85.0617 21.4511 84.8044 21.6808 84.4688 21.8432C84.1331 22.0028 83.7313 22.0825 83.2636 22.0825C82.9499 22.0825 82.6582 22.055 82.3886 22C82.1189 21.945 81.8919 21.8624 81.7076 21.7524V21.1002C81.9084 21.2213 82.1519 21.3176 82.4381 21.3892C82.7243 21.4607 83.0022 21.4965 83.2718 21.4965C83.5773 21.4965 83.8442 21.4483 84.0725 21.352C84.3037 21.253 84.4825 21.1044 84.6091 20.9063C84.7384 20.7054 84.8031 20.4536 84.8031 20.151C84.8031 19.7492 84.6793 19.4397 84.4316 19.2223C84.1867 19.0022 83.7988 18.8921 83.2677 18.8921C83.0971 18.8921 82.91 18.9059 82.7064 18.9334C82.5028 18.9609 82.3349 18.9912 82.2028 19.0242L81.8562 18.7972L82.0873 15.9658H85.0879V16.5932H82.6734L82.5207 18.4133C82.6252 18.3913 82.76 18.3693 82.9251 18.3473C83.0902 18.3225 83.2773 18.3102 83.4864 18.3102Z" fill="#24334B"/>
<path d="M93.2042 20.4958L93.7917 21.0833L95.875 19L93.7917 16.9167L93.2042 17.5042L94.2792 18.5833H90.25V19.4167H94.2792L93.2042 20.4958ZM96.9167 15.25H91.0833C90.8623 15.25 90.6504 15.3378 90.4941 15.4941C90.3378 15.6504 90.25 15.8623 90.25 16.0833V17.75H91.0833V16.0833H96.9167V21.9167H91.0833V20.25H90.25V21.9167C90.25 22.1377 90.3378 22.3496 90.4941 22.5059C90.6504 22.6622 90.8623 22.75 91.0833 22.75H96.9167C97.375 22.75 97.75 22.375 97.75 21.9167V16.0833C97.75 15.625 97.375 15.25 96.9167 15.25Z" fill="#24334B"/>
<path d="M16.2871 0H0V37.7283H16.2871V0Z" fill="#24334B"/>
<path d="M16.2871 37.7283L27.0077 18.8642L16.2871 0V37.7283Z" fill="#24334B"/>
<rect x="5" y="20" width="3" height="6" fill="white"/>
<rect x="9" y="16" width="3" height="10" fill="white"/>
<rect x="13" y="12" width="3" height="15" fill="white"/>
<path d="M66.1846 10H62.2306V9.4263L63.8444 7.78775C64.1444 7.48507 64.3961 7.21542 64.5997 6.97879C64.8061 6.74215 64.9629 6.50965 65.0703 6.28127C65.1776 6.05014 65.2312 5.79699 65.2312 5.52184C65.2312 5.18064 65.1294 4.92062 64.9258 4.74177C64.7249 4.56017 64.4594 4.46936 64.1292 4.46936C63.8403 4.46936 63.5844 4.51889 63.3615 4.61795C63.1387 4.717 62.9103 4.85733 62.6764 5.03894L62.3091 4.57667C62.4687 4.44185 62.642 4.32216 62.8291 4.2176C63.019 4.11304 63.2212 4.03049 63.4358 3.96996C63.6532 3.90942 63.8843 3.87915 64.1292 3.87915C64.5007 3.87915 64.8212 3.94382 65.0909 4.07314C65.3605 4.20246 65.5683 4.38682 65.7141 4.6262C65.8627 4.86559 65.937 5.15038 65.937 5.48056C65.937 5.79974 65.8737 6.09691 65.7471 6.37207C65.6206 6.64447 65.4431 6.9155 65.2147 7.18515C64.9863 7.45206 64.7194 7.73547 64.414 8.03539L63.1015 9.34375V9.37264H66.1846V10ZM69.6186 10H68.95V5.72408C68.95 5.56173 68.95 5.42278 68.95 5.30721C68.9527 5.1889 68.9555 5.08159 68.9582 4.98528C68.9637 4.88623 68.9706 4.78579 68.9788 4.68399C68.8936 4.77204 68.8138 4.8477 68.7395 4.91099C68.6652 4.97152 68.573 5.04719 68.4629 5.13799L67.7737 5.69106L67.4146 5.22467L69.049 3.96583H69.6186V10ZM73.8986 3.87915C74.2481 3.87915 74.5576 3.93419 74.8273 4.04425C75.0969 4.15431 75.3074 4.31665 75.4588 4.53127C75.6129 4.74314 75.6899 5.00454 75.6899 5.31547C75.6899 5.56036 75.6362 5.77498 75.5289 5.95933C75.4244 6.14094 75.2827 6.30053 75.1038 6.43811C74.925 6.57293 74.7269 6.694 74.5095 6.80131C74.7681 6.91963 75.0006 7.05308 75.207 7.20166C75.4161 7.35025 75.5812 7.52497 75.7023 7.72584C75.8234 7.9267 75.8839 8.16471 75.8839 8.43987C75.8839 8.77831 75.8013 9.07135 75.6362 9.31899C75.4739 9.56388 75.2455 9.75236 74.9511 9.88443C74.6567 10.0165 74.3114 10.0825 73.9151 10.0825C73.4887 10.0825 73.1255 10.0193 72.8255 9.89269C72.5284 9.76337 72.3014 9.57901 72.1445 9.33963C71.9904 9.09749 71.9134 8.8072 71.9134 8.46876C71.9134 8.19085 71.9725 7.95009 72.0909 7.74647C72.2092 7.54011 72.366 7.36263 72.5614 7.21405C72.7567 7.06546 72.97 6.94026 73.2011 6.83846C73.0003 6.72839 72.8159 6.6032 72.6481 6.46287C72.483 6.32254 72.3509 6.15882 72.2518 5.97172C72.1555 5.78186 72.1074 5.56173 72.1074 5.31134C72.1074 5.00592 72.1844 4.74727 72.3385 4.5354C72.4953 4.32078 72.7086 4.15844 72.9782 4.04838C73.2506 3.93556 73.5574 3.87915 73.8986 3.87915ZM72.5861 8.47288C72.5861 8.78106 72.6948 9.03558 72.9122 9.23644C73.1296 9.43455 73.4584 9.53361 73.8986 9.53361C74.3169 9.53361 74.6402 9.43455 74.8686 9.23644C75.0969 9.03558 75.2111 8.7728 75.2111 8.44812C75.2111 8.24726 75.1589 8.07116 75.0543 7.91982C74.9497 7.76573 74.8012 7.62816 74.6085 7.50709C74.4159 7.38602 74.1889 7.27596 73.9275 7.1769L73.7789 7.12324C73.5258 7.2278 73.3098 7.34474 73.131 7.47407C72.9549 7.60064 72.82 7.7451 72.7265 7.90744C72.6329 8.06978 72.5861 8.25826 72.5861 8.47288ZM73.8904 4.44047C73.5657 4.44047 73.3002 4.51889 73.0938 4.67573C72.8874 4.82982 72.7843 5.05269 72.7843 5.34436C72.7843 5.55348 72.8338 5.73095 72.9328 5.87679C73.0346 6.01987 73.1722 6.14369 73.3456 6.24825C73.5189 6.35006 73.7129 6.44498 73.9275 6.53303C74.1366 6.44498 74.3224 6.34868 74.4847 6.24412C74.6471 6.13681 74.775 6.01024 74.8686 5.8644C74.9621 5.71857 75.0089 5.54385 75.0089 5.34023C75.0089 5.04857 74.9057 4.82569 74.6993 4.6716C74.4957 4.51752 74.2261 4.44047 73.8904 4.44047ZM80.7294 6.97466C80.7294 7.46444 80.6922 7.90194 80.6179 8.28715C80.5437 8.67237 80.4267 8.99843 80.2671 9.26533C80.1075 9.53223 79.9012 9.73585 79.648 9.87618C79.3949 10.0138 79.0908 10.0825 78.7359 10.0825C78.2874 10.0825 77.9159 9.9601 77.6215 9.71521C77.3298 9.47032 77.1111 9.11675 76.9653 8.65449C76.8222 8.18947 76.7506 7.62953 76.7506 6.97466C76.7506 6.33079 76.8153 5.77773 76.9446 5.31547C77.0767 4.85045 77.2886 4.49413 77.5802 4.24649C77.8719 3.9961 78.2571 3.8709 78.7359 3.8709C79.1899 3.8709 79.5641 3.99472 79.8585 4.24236C80.1529 4.48725 80.3717 4.8422 80.5148 5.30721C80.6578 5.76948 80.7294 6.32529 80.7294 6.97466ZM77.4399 6.97466C77.4399 7.53598 77.4825 8.00374 77.5678 8.37796C77.6531 8.75217 77.7907 9.03283 77.9806 9.21993C78.1732 9.40429 78.425 9.49646 78.7359 9.49646C79.0468 9.49646 79.2972 9.40429 79.4871 9.21993C79.6797 9.03558 79.8186 8.75629 79.9039 8.38208C79.992 8.00787 80.036 7.53873 80.036 6.97466C80.036 6.4216 79.9933 5.95933 79.908 5.58787C79.8227 5.21366 79.6852 4.933 79.4953 4.7459C79.3055 4.55604 79.0523 4.46111 78.7359 4.46111C78.4195 4.46111 78.1663 4.55604 77.9765 4.7459C77.7866 4.933 77.649 5.21366 77.5637 5.58787C77.4812 5.95933 77.4399 6.4216 77.4399 6.97466ZM85.5666 6.97466C85.5666 7.46444 85.5295 7.90194 85.4552 8.28715C85.3809 8.67237 85.264 8.99843 85.1044 9.26533C84.9448 9.53223 84.7384 9.73585 84.4853 9.87618C84.2321 10.0138 83.9281 10.0825 83.5731 10.0825C83.1246 10.0825 82.7532 9.9601 82.4587 9.71521C82.1671 9.47032 81.9483 9.11675 81.8025 8.65449C81.6594 8.18947 81.5879 7.62953 81.5879 6.97466C81.5879 6.33079 81.6525 5.77773 81.7819 5.31547C81.9139 4.85045 82.1258 4.49413 82.4175 4.24649C82.7091 3.9961 83.0944 3.8709 83.5731 3.8709C84.0271 3.8709 84.4013 3.99472 84.6958 4.24236C84.9902 4.48725 85.2089 4.8422 85.352 5.30721C85.4951 5.76948 85.5666 6.32529 85.5666 6.97466ZM82.2771 6.97466C82.2771 7.53598 82.3198 8.00374 82.4051 8.37796C82.4904 8.75217 82.628 9.03283 82.8178 9.21993C83.0104 9.40429 83.2622 9.49646 83.5731 9.49646C83.8841 9.49646 84.1344 9.40429 84.3243 9.21993C84.5169 9.03558 84.6559 8.75629 84.7412 8.38208C84.8292 8.00787 84.8732 7.53873 84.8732 6.97466C84.8732 6.4216 84.8306 5.95933 84.7453 5.58787C84.66 5.21366 84.5224 4.933 84.3326 4.7459C84.1427 4.55604 83.8896 4.46111 83.5731 4.46111C83.2567 4.46111 83.0036 4.55604 82.8137 4.7459C82.6238 4.933 82.4863 5.21366 82.401 5.58787C82.3184 5.95933 82.2771 6.4216 82.2771 6.97466Z" fill="#24334B"/>
<path d="M93.9998 4.70882C94.766 4.70627 95.5173 4.91998 96.1674 5.32537C96.8175 5.73077 97.34 6.31139 97.6748 7.00049C96.9873 8.40465 95.5832 9.29215 93.9998 9.29215C92.4165 9.29215 91.0123 8.40465 90.3248 7.00049C90.6597 6.31139 91.1822 5.73077 91.8323 5.32537C92.4824 4.91998 93.2337 4.70627 93.9998 4.70882ZM93.9998 3.87549C91.9165 3.87549 90.1373 5.17132 89.4165 7.00049C90.1373 8.82965 91.9165 10.1255 93.9998 10.1255C96.0832 10.1255 97.8623 8.82965 98.5832 7.00049C97.8623 5.17132 96.0832 3.87549 93.9998 3.87549ZM93.9998 5.95882C94.2761 5.95882 94.5411 6.06857 94.7364 6.26392C94.9318 6.45927 95.0415 6.72422 95.0415 7.00049C95.0415 7.27676 94.9318 7.54171 94.7364 7.73706C94.5411 7.93241 94.2761 8.04215 93.9998 8.04215C93.7236 8.04215 93.4586 7.93241 93.2633 7.73706C93.0679 7.54171 92.9582 7.27676 92.9582 7.00049C92.9582 6.72422 93.0679 6.45927 93.2633 6.26392C93.4586 6.06857 93.7236 5.95882 93.9998 5.95882ZM93.9998 5.12549C92.9665 5.12549 92.1248 5.96715 92.1248 7.00049C92.1248 8.03382 92.9665 8.87549 93.9998 8.87549C95.0332 8.87549 95.8748 8.03382 95.8748 7.00049C95.8748 5.96715 95.0332 5.12549 93.9998 5.12549Z" fill="#24334B"/>
</svg>
