<svg width="20" height="20" viewBox="0 0 20 20" fill="none" xmlns="http://www.w3.org/2000/svg">
<path fill-rule="evenodd" clip-rule="evenodd" d="M4.33568 0.341293C8.10038 -0.076004 11.8997 -0.076004 15.6643 0.341293C17.721 0.570899 19.3792 2.19005 19.6207 4.25434C20.0672 8.0717 20.0672 11.9281 19.6207 15.7455C19.3792 17.8097 17.7211 19.4289 15.6654 19.6596C11.9004 20.077 8.10073 20.077 4.33568 19.6596C2.27898 19.4289 0.620835 17.8097 0.379316 15.7465C-0.0671938 11.9288 -0.0671938 8.07206 0.379316 4.25434C0.620835 2.19005 2.27898 0.570899 4.33568 0.341293ZM15.4152 3.50162C15.128 3.50162 14.8525 3.61573 14.6494 3.81884C14.4463 4.02195 14.3322 4.29743 14.3322 4.58467C14.3322 4.87191 14.4463 5.14739 14.6494 5.3505C14.8525 5.55361 15.128 5.66771 15.4152 5.66771C15.7025 5.66771 15.978 5.55361 16.1811 5.3505C16.3842 5.14739 16.4983 4.87191 16.4983 4.58467C16.4983 4.29743 16.3842 4.02195 16.1811 3.81884C15.978 3.61573 15.7025 3.50162 15.4152 3.50162ZM4.85555 9.9999C4.85555 8.6355 5.39755 7.32698 6.36233 6.36221C7.3271 5.39743 8.63562 4.85543 10 4.85543C11.3644 4.85543 12.6729 5.39743 13.6377 6.36221C14.6025 7.32698 15.1445 8.6355 15.1445 9.9999C15.1445 11.3643 14.6025 12.6728 13.6377 13.6376C12.6729 14.6024 11.3644 15.1444 10 15.1444C8.63562 15.1444 7.3271 14.6024 6.36233 13.6376C5.39755 12.6728 4.85555 11.3643 4.85555 9.9999Z" fill="#EBEBEB"/>
</svg>
